<?xml version="1.0" encoding="utf-8"?>
<!-- Generator: Adobe Illustrator 18.1.1, SVG Export Plug-In . SVG Version: 6.00 Build 0)  -->
<!DOCTYPE svg PUBLIC "-//W3C//DTD SVG 1.1//EN" "http://www.w3.org/Graphics/SVG/1.1/DTD/svg11.dtd">
<svg version="1.1" xmlns="http://www.w3.org/2000/svg" xmlns:xlink="http://www.w3.org/1999/xlink" x="0px" y="0px"
	 viewBox="0 0 376 376" enable-background="new 0 0 376 376" xml:space="preserve">
<g id="Layer_5" display="none">
	<ellipse display="inline" stroke="#FFFFFF" stroke-width="12" stroke-miterlimit="10" cx="324.5" cy="246.1" rx="11" ry="8.4"/>
	<rect y="3.7" display="inline" stroke="#FFFFFF" stroke-width="12" stroke-miterlimit="10" width="597.7" height="551.3"/>
</g>
<g id="Layer_6">
	<ellipse fill="#FFFFFF" stroke="#FFFFFF" stroke-width="12" stroke-miterlimit="10" cx="188.2" cy="185.7" rx="6.7" ry="6.5"/>
</g>
<g id="Layer_1">
	<circle fill="none" stroke="#FFFFFF" stroke-width="12" stroke-miterlimit="10" cx="188.4" cy="186.2" r="180.3"/>
</g>
<g id="minutes">
	<path fill="#FFFFFF" d="M182.9,174.4c2.4-0.6,4.9-1.1,7.4-0.4c8.8,2.4,12.6,12.4,7.6,19.7c-0.1,0.2-0.3,0.4-0.5,0.8
		c1.7,1.9,3.5,3.9,5.3,5.8c7.7,8.3,15.5,16.6,23,25.1c2.1,2.4,3.5,5.6,5.1,8.5c4.2,7.4,8.4,14.8,12.7,22.2
		c5,8.8,10.1,17.5,15.1,26.3c4.9,8.5,9.7,17,14.6,25.5c4.1,7.1,8.2,14.2,12.2,21.3c0.2,0.4,0.5,0.8,0.8,1.1
		c-0.1,0.1-0.2,0.1-0.2,0.2c-2.8-3.4-5.6-6.9-8.4-10.4c-8.7-11-17.4-22.1-26.1-33.1c-7.8-9.9-15.6-19.8-23.4-29.7
		c-5.3-6.7-10.7-13.3-15.8-20.1c-2-2.6-3.4-5.7-4.8-8.6c-4.8-9.8-9.5-19.7-14.2-29.6c-0.2-0.4-0.5-0.8-0.7-1.3
		c-3.4,1-6.7,0.8-9.9-1.1c-7-4.1-8.8-13.3-3.9-19.2c0.2-0.2,0.3-0.5,0.5-0.7C180.4,176,181.6,175.2,182.9,174.4z M191.6,183.6
		c-0.6-0.9-1.1-1.7-1.7-2.6c-1.4-1.9-3.8-2.5-5.6-1.5c-1.9,1-3,3.4-2,5.3c1.3,2.5,2.9,4.9,4.8,7c1.5,1.7,4.1,1.5,5.7,0.1
		c1.6-1.5,1.9-3.8,0.7-5.8C192.8,185.3,192.2,184.4,191.6,183.6z"/>
	<path fill="#FFFFFF" d="M277.8,188.4c0-0.1,0-0.2,0-0.4c26.1,0,52.2,0,78.3,0.1c3.4,0,4.8-0.4,4.9-3.1c0-2.7-1.7-3-4.9-3
		c-51.9,0.1-103.8,0.2-155.7,0.2c-2.1,0-4.5-0.6-6.2-1.4c-4.5-2.2-8.8-2.2-13.1,0.1c-1.4,0.8-3.5,1.3-5.3,1.3
		c-9.3,0.1-18.6,0.2-27.8,0c-4.1-0.1-3.8,1.5-4,3.3c-0.2,2.1,1.1,2.7,4,2.6c9.1-0.1,18.3-0.1,27.4,0c2.1,0,4.4,0.7,6.1,1.5
		c4.1,2,8.4,2,12.5,0.1c1.8-0.9,4.3-1.6,6.5-1.6C226.2,188.3,252,188.4,277.8,188.4z"/>
</g>
<g id="hours">
	<path fill="#FFFFFF" d="M186.5,199.1c-2.1-0.9-4.3-1.5-6.1-2.8c-4.4-3.2-6.1-7.8-5-13.1c1-5.4,4.5-8.8,9.8-10.4
		c0.2-0.1,0.5-0.1,0.7-0.2c0,0,0.1-0.1,0.3-0.2c-0.5-2.7-0.9-5.4-1.4-8.2c-1.6-9.1-3.3-18.1-4.8-27.2c-0.3-2,0.3-4.3,0.5-6.4
		c1.5-13.2,3.1-26.4,4.6-39.6c1.2-10,2.3-19.9,3.5-29.9c0-0.1,0.1-0.3,0.4-0.4c0.2,1.8,0.5,3.7,0.7,5.5c1.1,9,2.1,18,3.2,27
		c1.1,9.5,2.2,19,3.3,28.5c0.6,4.7,1.1,9.5,1.7,14.2c0.1,0.8,0.1,1.6,0,2.3c-1.9,11.2-3.9,22.4-5.9,33.5c-0.1,0.3-0.1,0.7-0.1,1.1
		c3.5,1,6.3,3.1,8.2,6.3c4.4,7.6,0.3,17.4-8.2,19.6c-0.5,0.1-1,0.3-1.5,0.5C189,199.1,187.7,199.1,186.5,199.1z M196.2,185.7
		c0-4.3-3.6-7.8-7.9-7.7c-4.3,0.1-7.7,3.6-7.7,7.9c0,4.3,3.6,7.8,7.9,7.7C192.7,193.5,196.2,190,196.2,185.7z"/>
</g>
</svg>
